<mxfile host="app.diagrams.net" modified="2024-04-27T17:17:40.479Z" agent="Mozilla/5.0 (X11; Linux x86_64) AppleWebKit/537.36 (KHTML, like Gecko) Chrome/122.0.0.0 Safari/537.36" etag="hqKdwNPHpqXooXqYY5F-" version="24.3.1" type="device">
  <diagram name="Page-1" id="42789a77-a242-8287-6e28-9cd8cfd52e62">
    <mxGraphModel dx="2359" dy="1555" grid="1" gridSize="10" guides="1" tooltips="1" connect="1" arrows="1" fold="1" page="1" pageScale="1" pageWidth="1100" pageHeight="850" background="none" math="0" shadow="0">
      <root>
        <mxCell id="0" />
        <mxCell id="1" parent="0" />
        <mxCell id="HvbxIJ13E0RLusFpOhaC-3" value="" style="group;fontSize=22;strokeWidth=5;labelBackgroundColor=none;fontColor=#000000;fontStyle=1" vertex="1" connectable="0" parent="1">
          <mxGeometry x="-600" y="-470" width="1590" height="1320" as="geometry" />
        </mxCell>
        <mxCell id="-69OxPuNq_jgh57A_tOw-33" value="" style="ellipse;whiteSpace=wrap;html=1;fontSize=22;labelBackgroundColor=none;fillColor=#FFFFFF;strokeColor=#788AA3;fontColor=#000000;fontStyle=1" parent="HvbxIJ13E0RLusFpOhaC-3" vertex="1">
          <mxGeometry y="1069.894736842105" width="915.9782608695652" height="250.1052631578947" as="geometry" />
        </mxCell>
        <mxCell id="1ea317790d2ca983-1" value="AccSpeciesName" style="ellipse;whiteSpace=wrap;html=1;rounded=0;shadow=1;comic=0;labelBackgroundColor=none;strokeWidth=1;fontFamily=Verdana;fontSize=22;align=center;fillColor=#B2C9AB;strokeColor=#788AA3;fontColor=#000000;fontStyle=1" parent="HvbxIJ13E0RLusFpOhaC-3" vertex="1">
          <mxGeometry x="985.1086956521742" y="347.36842105263156" width="155.5434782608696" height="83.36842105263158" as="geometry" />
        </mxCell>
        <mxCell id="1ea317790d2ca983-2" value="&lt;span style=&quot;font-size: 22px;&quot;&gt;DatasetID&lt;/span&gt;" style="ellipse;whiteSpace=wrap;html=1;rounded=0;shadow=1;comic=0;labelBackgroundColor=none;strokeWidth=1;fontFamily=Verdana;fontSize=22;align=center;fillColor=#B2C9AB;strokeColor=#788AA3;fontColor=#000000;fontStyle=1" parent="HvbxIJ13E0RLusFpOhaC-3" vertex="1">
          <mxGeometry x="725.8695652173914" y="180.63157894736838" width="138.2608695652174" height="69.4736842105263" as="geometry" />
        </mxCell>
        <mxCell id="1ea317790d2ca983-3" value="&lt;span style=&quot;font-size: 22px;&quot;&gt;AccSpeciesID&lt;/span&gt;" style="ellipse;whiteSpace=wrap;html=1;rounded=0;shadow=1;comic=0;labelBackgroundColor=none;strokeWidth=1;fontFamily=Verdana;fontSize=22;align=center;fillColor=#B2C9AB;strokeColor=#788AA3;fontColor=#000000;fontStyle=1" parent="HvbxIJ13E0RLusFpOhaC-3" vertex="1">
          <mxGeometry x="725.8695652173914" y="347.36842105263156" width="138.2608695652174" height="69.4736842105263" as="geometry" />
        </mxCell>
        <mxCell id="1ea317790d2ca983-4" value="&lt;span style=&quot;font-size: 22px;&quot;&gt;Reference&lt;/span&gt;" style="ellipse;whiteSpace=wrap;html=1;rounded=0;shadow=1;comic=0;labelBackgroundColor=none;strokeWidth=1;fontFamily=Verdana;fontSize=22;align=center;fillColor=#B2C9AB;strokeColor=#788AA3;fontColor=#000000;fontStyle=1" parent="HvbxIJ13E0RLusFpOhaC-3" vertex="1">
          <mxGeometry x="483.91304347826093" y="180.63157894736838" width="138.2608695652174" height="69.4736842105263" as="geometry" />
        </mxCell>
        <mxCell id="1ea317790d2ca983-5" value="&lt;span style=&quot;font-size: 22px;&quot;&gt;LastName&lt;/span&gt;" style="ellipse;whiteSpace=wrap;html=1;rounded=0;shadow=1;comic=0;labelBackgroundColor=none;strokeWidth=1;fontFamily=Verdana;fontSize=22;align=center;fillColor=#B2C9AB;strokeColor=#788AA3;fontColor=#000000;fontStyle=1" parent="HvbxIJ13E0RLusFpOhaC-3" vertex="1">
          <mxGeometry x="220" y="200" width="148.26" height="69.47" as="geometry" />
        </mxCell>
        <mxCell id="1ea317790d2ca983-7" value="&lt;span style=&quot;font-size: 22px;&quot;&gt;TraitName&lt;/span&gt;" style="ellipse;whiteSpace=wrap;html=1;rounded=0;shadow=1;comic=0;labelBackgroundColor=none;strokeWidth=1;fontFamily=Verdana;fontSize=22;align=center;fillColor=#B2C9AB;strokeColor=#788AA3;fontColor=#000000;fontStyle=1" parent="HvbxIJ13E0RLusFpOhaC-3" vertex="1">
          <mxGeometry x="1365.326086956522" y="861.4736842105261" width="138.2608695652174" height="69.4736842105263" as="geometry" />
        </mxCell>
        <mxCell id="1ea317790d2ca983-8" value="TraitID" style="ellipse;whiteSpace=wrap;html=1;rounded=0;shadow=1;comic=0;labelBackgroundColor=none;strokeWidth=1;fontFamily=Verdana;fontSize=22;align=center;fillColor=#B2C9AB;strokeColor=#788AA3;fontColor=#000000;fontStyle=1" parent="HvbxIJ13E0RLusFpOhaC-3" vertex="1">
          <mxGeometry x="1071.521739130435" y="861.4736842105261" width="138.2608695652174" height="69.4736842105263" as="geometry" />
        </mxCell>
        <mxCell id="1ea317790d2ca983-9" value="SpeciesName" style="ellipse;whiteSpace=wrap;html=1;rounded=0;shadow=1;comic=0;labelBackgroundColor=none;strokeWidth=1;fontFamily=Verdana;fontSize=22;align=center;fillColor=#B2C9AB;strokeColor=#788AA3;fontColor=#000000;fontStyle=1" parent="HvbxIJ13E0RLusFpOhaC-3" vertex="1">
          <mxGeometry x="432.06521739130443" y="361.26315789473676" width="138.2608695652174" height="69.4736842105263" as="geometry" />
        </mxCell>
        <mxCell id="1ea317790d2ca983-10" value="&lt;span style=&quot;font-size: 22px;&quot;&gt;ObservationID&lt;/span&gt;" style="ellipse;whiteSpace=wrap;html=1;rounded=0;shadow=1;comic=0;labelBackgroundColor=none;strokeWidth=1;fontFamily=Verdana;fontSize=22;align=center;fillColor=#B2C9AB;strokeColor=#788AA3;fontColor=#000000;fontStyle=1" parent="HvbxIJ13E0RLusFpOhaC-3" vertex="1">
          <mxGeometry x="725.8695652173914" y="541.8947368421051" width="138.2608695652174" height="69.4736842105263" as="geometry" />
        </mxCell>
        <mxCell id="1ea317790d2ca983-11" value="&lt;span style=&quot;font-size: 22px;&quot;&gt;ObsDataID&lt;/span&gt;" style="ellipse;whiteSpace=wrap;html=1;rounded=0;shadow=1;comic=0;labelBackgroundColor=none;strokeWidth=1;fontFamily=Verdana;fontSize=22;align=center;fillColor=#B2C9AB;strokeColor=#788AA3;fontColor=#000000;fontStyle=1" parent="HvbxIJ13E0RLusFpOhaC-3" vertex="1">
          <mxGeometry x="725.8695652173914" y="708.6315789473683" width="138.2608695652174" height="69.4736842105263" as="geometry" />
        </mxCell>
        <mxCell id="mt-MSzTP2T6WztOtASTQ-1" value="Dataset" style="ellipse;whiteSpace=wrap;html=1;rounded=0;shadow=1;comic=0;labelBackgroundColor=none;strokeWidth=1;fontFamily=Verdana;fontSize=22;align=center;fillColor=#B2C9AB;strokeColor=#788AA3;fontColor=#000000;fontStyle=1" parent="HvbxIJ13E0RLusFpOhaC-3" vertex="1">
          <mxGeometry x="1002.3913043478263" y="180.63157894736838" width="138.2608695652174" height="69.4736842105263" as="geometry" />
        </mxCell>
        <mxCell id="mt-MSzTP2T6WztOtASTQ-4" value="&lt;span style=&quot;font-size: 22px;&quot;&gt;FirstName&lt;/span&gt;" style="ellipse;whiteSpace=wrap;html=1;rounded=0;shadow=1;comic=0;labelBackgroundColor=none;strokeWidth=1;fontFamily=Verdana;fontSize=22;align=center;fillColor=#B2C9AB;strokeColor=#788AA3;fontColor=#000000;fontStyle=1" parent="HvbxIJ13E0RLusFpOhaC-3" vertex="1">
          <mxGeometry x="225" y="111.16" width="150.22" height="69.47" as="geometry" />
        </mxCell>
        <mxCell id="-69OxPuNq_jgh57A_tOw-1" value="DataID" style="ellipse;whiteSpace=wrap;html=1;rounded=0;shadow=1;comic=0;labelBackgroundColor=none;strokeWidth=1;fontFamily=Verdana;fontSize=22;align=center;fillColor=#B2C9AB;strokeColor=#788AA3;fontColor=#000000;fontStyle=1" parent="HvbxIJ13E0RLusFpOhaC-3" vertex="1">
          <mxGeometry x="725.8695652173914" y="861.4736842105261" width="138.2608695652174" height="69.4736842105263" as="geometry" />
        </mxCell>
        <mxCell id="-69OxPuNq_jgh57A_tOw-2" value="&lt;span style=&quot;font-size: 22px;&quot;&gt;DataName&lt;/span&gt;" style="ellipse;whiteSpace=wrap;html=1;rounded=0;shadow=1;comic=0;labelBackgroundColor=none;strokeWidth=1;fontFamily=Verdana;fontSize=22;align=center;fillColor=#B2C9AB;strokeColor=#788AA3;fontColor=#000000;fontStyle=1" parent="HvbxIJ13E0RLusFpOhaC-3" vertex="1">
          <mxGeometry x="414.7826086956522" y="861.4736842105261" width="138.2608695652174" height="69.4736842105263" as="geometry" />
        </mxCell>
        <mxCell id="-69OxPuNq_jgh57A_tOw-7" value="OrigName" style="ellipse;whiteSpace=wrap;html=1;rounded=0;shadow=1;comic=0;labelBackgroundColor=none;strokeWidth=1;fontFamily=Verdana;fontSize=22;align=center;fillColor=#B2C9AB;strokeColor=#788AA3;fontColor=#000000;fontStyle=1" parent="HvbxIJ13E0RLusFpOhaC-3" vertex="1">
          <mxGeometry x="881.413043478261" y="1014.315789473684" width="138.2608695652174" height="69.4736842105263" as="geometry" />
        </mxCell>
        <mxCell id="-69OxPuNq_jgh57A_tOw-8" value="OrigValueStr" style="ellipse;whiteSpace=wrap;html=1;rounded=0;shadow=1;comic=0;labelBackgroundColor=none;strokeWidth=1;fontFamily=Verdana;fontSize=22;align=center;fillColor=#B2C9AB;strokeColor=#788AA3;fontColor=#000000;fontStyle=1" parent="HvbxIJ13E0RLusFpOhaC-3" vertex="1">
          <mxGeometry x="1123.3695652173915" y="1014.315789473684" width="138.2608695652174" height="69.4736842105263" as="geometry" />
        </mxCell>
        <mxCell id="-69OxPuNq_jgh57A_tOw-9" value="OrigUnitStr" style="ellipse;whiteSpace=wrap;html=1;rounded=0;shadow=1;comic=0;labelBackgroundColor=none;strokeWidth=1;fontFamily=Verdana;fontSize=22;align=center;fillColor=#B2C9AB;strokeColor=#788AA3;fontColor=#000000;fontStyle=1" parent="HvbxIJ13E0RLusFpOhaC-3" vertex="1">
          <mxGeometry x="1451.7391304347827" y="944.8421052631577" width="138.2608695652174" height="69.4736842105263" as="geometry" />
        </mxCell>
        <mxCell id="-69OxPuNq_jgh57A_tOw-16" value="&lt;span style=&quot;font-family: Helvetica; text-align: -webkit-left; font-size: 22px;&quot;&gt;ValueKindName&lt;/span&gt;" style="ellipse;whiteSpace=wrap;html=1;rounded=0;shadow=1;comic=0;labelBackgroundColor=none;strokeWidth=1;fontFamily=Verdana;fontSize=22;align=center;fillColor=#B2C9AB;strokeColor=#788AA3;fontColor=#000000;fontStyle=1" parent="HvbxIJ13E0RLusFpOhaC-3" vertex="1">
          <mxGeometry x="69.1304347826087" y="1139.3684210526314" width="172.82608695652178" height="69.4736842105263" as="geometry" />
        </mxCell>
        <mxCell id="-69OxPuNq_jgh57A_tOw-17" value="&lt;span style=&quot;font-family: Helvetica; text-align: -webkit-left; font-size: 22px;&quot;&gt;OrigUncertaintyStr&lt;/span&gt;" style="ellipse;whiteSpace=wrap;html=1;rounded=0;shadow=1;comic=0;labelBackgroundColor=none;strokeWidth=1;fontFamily=Verdana;fontSize=22;align=center;fillColor=#B2C9AB;strokeColor=#788AA3;fontColor=#000000;fontStyle=1" parent="HvbxIJ13E0RLusFpOhaC-3" vertex="1">
          <mxGeometry x="345.65217391304355" y="1167.1578947368416" width="172.82608695652178" height="69.4736842105263" as="geometry" />
        </mxCell>
        <mxCell id="-69OxPuNq_jgh57A_tOw-18" value="&lt;span style=&quot;font-family: Helvetica; text-align: -webkit-left; font-size: 22px;&quot;&gt;UncertaintyName&lt;/span&gt;" style="ellipse;whiteSpace=wrap;html=1;rounded=0;shadow=1;comic=0;labelBackgroundColor=none;strokeWidth=1;fontFamily=Verdana;fontSize=22;align=center;fillColor=#B2C9AB;strokeColor=#788AA3;fontColor=#000000;fontStyle=1" parent="HvbxIJ13E0RLusFpOhaC-3" vertex="1">
          <mxGeometry x="553.0434782608696" y="1153.2631578947367" width="172.82608695652178" height="69.4736842105263" as="geometry" />
        </mxCell>
        <mxCell id="-69OxPuNq_jgh57A_tOw-19" value="&lt;span style=&quot;font-family: Helvetica; text-align: -webkit-left; font-size: 22px;&quot;&gt;Replicates&lt;/span&gt;" style="ellipse;whiteSpace=wrap;html=1;rounded=0;shadow=1;comic=0;labelBackgroundColor=none;strokeWidth=1;fontFamily=Verdana;fontSize=22;align=center;fillColor=#B2C9AB;strokeColor=#788AA3;fontColor=#000000;fontStyle=1" parent="HvbxIJ13E0RLusFpOhaC-3" vertex="1">
          <mxGeometry x="293.80434782608694" y="1222.736842105263" width="172.82608695652178" height="69.4736842105263" as="geometry" />
        </mxCell>
        <mxCell id="-69OxPuNq_jgh57A_tOw-20" value="&lt;span style=&quot;font-family: Helvetica; text-align: -webkit-left; font-size: 22px;&quot;&gt;StdValue&lt;/span&gt;" style="ellipse;whiteSpace=wrap;html=1;rounded=0;shadow=1;comic=0;labelBackgroundColor=none;strokeWidth=1;fontFamily=Verdana;fontSize=22;align=center;fillColor=#B2C9AB;strokeColor=#788AA3;fontColor=#000000;fontStyle=1" parent="HvbxIJ13E0RLusFpOhaC-3" vertex="1">
          <mxGeometry x="449.3478260869566" y="1111.5789473684208" width="172.82608695652178" height="69.4736842105263" as="geometry" />
        </mxCell>
        <mxCell id="-69OxPuNq_jgh57A_tOw-22" value="&lt;span style=&quot;font-family: Helvetica; text-align: -webkit-left; font-size: 22px;&quot;&gt;RelUncertaintyPercent&lt;/span&gt;" style="ellipse;whiteSpace=wrap;html=1;rounded=0;shadow=1;comic=0;labelBackgroundColor=none;strokeWidth=1;fontFamily=Verdana;fontSize=22;align=center;fillColor=#B2C9AB;strokeColor=#788AA3;fontColor=#000000;fontStyle=1" parent="HvbxIJ13E0RLusFpOhaC-3" vertex="1">
          <mxGeometry x="449.3478260869566" y="1222.736842105263" width="276.5217391304348" height="69.4736842105263" as="geometry" />
        </mxCell>
        <mxCell id="-69OxPuNq_jgh57A_tOw-23" value="&lt;span style=&quot;font-family: Helvetica; text-align: -webkit-left; font-size: 22px;&quot;&gt;OrigObsDataID&lt;/span&gt;" style="ellipse;whiteSpace=wrap;html=1;rounded=0;shadow=1;comic=0;labelBackgroundColor=none;strokeWidth=1;fontFamily=Verdana;fontSize=22;align=center;fillColor=#B2C9AB;strokeColor=#788AA3;fontColor=#000000;fontStyle=1" parent="HvbxIJ13E0RLusFpOhaC-3" vertex="1">
          <mxGeometry x="155.5434782608696" y="1194.9473684210525" width="190.10869565217394" height="69.4736842105263" as="geometry" />
        </mxCell>
        <mxCell id="-69OxPuNq_jgh57A_tOw-24" value="&lt;span style=&quot;font-family: Helvetica; text-align: -webkit-left; font-size: 22px;&quot;&gt;ErrorRisk&lt;/span&gt;" style="ellipse;whiteSpace=wrap;html=1;rounded=0;shadow=1;comic=0;labelBackgroundColor=none;strokeWidth=1;fontFamily=Verdana;fontSize=22;align=center;fillColor=#B2C9AB;strokeColor=#788AA3;fontColor=#000000;fontStyle=1" parent="HvbxIJ13E0RLusFpOhaC-3" vertex="1">
          <mxGeometry x="1451.7391304347827" y="1069.894736842105" width="138.2608695652174" height="69.4736842105263" as="geometry" />
        </mxCell>
        <mxCell id="-69OxPuNq_jgh57A_tOw-35" value="&lt;span style=&quot;font-family: Helvetica; text-align: -webkit-left; font-size: 22px;&quot;&gt;StdValueStr&lt;/span&gt;" style="ellipse;whiteSpace=wrap;html=1;rounded=0;shadow=1;comic=0;labelBackgroundColor=none;strokeWidth=1;fontFamily=Verdana;fontSize=22;align=center;fillColor=#B2C9AB;strokeColor=#788AA3;fontColor=#000000;fontStyle=1" parent="HvbxIJ13E0RLusFpOhaC-3" vertex="1">
          <mxGeometry x="674.0217391304349" y="1194.9473684210525" width="172.82608695652178" height="69.4736842105263" as="geometry" />
        </mxCell>
        <mxCell id="-69OxPuNq_jgh57A_tOw-36" value="&lt;span style=&quot;font-family: Helvetica; text-align: -webkit-left; font-size: 22px;&quot;&gt;Comment&lt;/span&gt;" style="ellipse;whiteSpace=wrap;html=1;rounded=0;shadow=1;comic=0;labelBackgroundColor=none;strokeWidth=1;fontFamily=Verdana;fontSize=22;align=center;fillColor=#B2C9AB;strokeColor=#788AA3;fontColor=#000000;fontStyle=1" parent="HvbxIJ13E0RLusFpOhaC-3" vertex="1">
          <mxGeometry x="328.36956521739137" y="1083.7894736842102" width="172.82608695652178" height="69.4736842105263" as="geometry" />
        </mxCell>
        <mxCell id="-69OxPuNq_jgh57A_tOw-21" value="&lt;span style=&quot;font-family: Helvetica; text-align: -webkit-left; font-size: 22px;&quot;&gt;UnitName&lt;/span&gt;" style="ellipse;whiteSpace=wrap;html=1;rounded=0;shadow=1;comic=0;labelBackgroundColor=none;strokeWidth=1;fontFamily=Verdana;fontSize=22;align=center;fillColor=#B2C9AB;strokeColor=#788AA3;fontColor=#000000;fontStyle=1" parent="HvbxIJ13E0RLusFpOhaC-3" vertex="1">
          <mxGeometry x="172.82608695652178" y="1097.6842105263158" width="172.82608695652178" height="69.4736842105263" as="geometry" />
        </mxCell>
        <mxCell id="-69OxPuNq_jgh57A_tOw-37" value="&lt;span style=&quot;font-size: 22px;&quot;&gt;&lt;font style=&quot;font-size: 22px;&quot;&gt;TRY-db dataset map&lt;/font&gt;&lt;/span&gt;" style="rounded=0;whiteSpace=wrap;html=1;fontStyle=1;fontSize=22;labelBackgroundColor=none;fillColor=#B2C9AB;strokeColor=#788AA3;fontColor=#000000;" parent="HvbxIJ13E0RLusFpOhaC-3" vertex="1">
          <mxGeometry x="540" y="-45" width="380" height="90" as="geometry" />
        </mxCell>
        <mxCell id="1ea317790d2ca983-12" style="edgeStyle=none;rounded=1;html=1;labelBackgroundColor=default;startArrow=none;startFill=0;startSize=5;endArrow=classicThin;endFill=1;endSize=5;jettySize=auto;orthogonalLoop=1;strokeColor=#788AA3;strokeWidth=5;fontFamily=Helvetica;fontSize=22;entryX=0.5;entryY=0;entryDx=0;entryDy=0;flowAnimation=0;enumerate=0;sketchStyle=comic;backgroundOutline=0;snapToPoint=0;orthogonal=0;disableMultiStroke=0;fontColor=#000000;fontStyle=1" parent="HvbxIJ13E0RLusFpOhaC-3" source="1ea317790d2ca983-2" target="1ea317790d2ca983-3" edge="1">
          <mxGeometry relative="1" as="geometry" />
        </mxCell>
        <mxCell id="-69OxPuNq_jgh57A_tOw-38" value="has multiple" style="edgeLabel;html=1;align=center;verticalAlign=middle;resizable=0;points=[];fontSize=22;labelBackgroundColor=none;fontColor=#000000;fontStyle=1" parent="1ea317790d2ca983-12" vertex="1" connectable="0">
          <mxGeometry relative="1" as="geometry">
            <mxPoint as="offset" />
          </mxGeometry>
        </mxCell>
        <mxCell id="1ea317790d2ca983-13" value="has" style="edgeStyle=none;rounded=1;html=1;labelBackgroundColor=default;startArrow=none;startFill=0;startSize=5;endArrow=classicThin;endFill=1;endSize=5;jettySize=auto;orthogonalLoop=1;strokeColor=#788AA3;strokeWidth=5;fontFamily=Helvetica;fontSize=22;exitX=0;exitY=0.5;exitDx=0;exitDy=0;flowAnimation=0;enumerate=0;sketchStyle=comic;backgroundOutline=0;snapToPoint=0;orthogonal=0;disableMultiStroke=0;fontColor=#000000;fontStyle=1" parent="HvbxIJ13E0RLusFpOhaC-3" source="1ea317790d2ca983-3" target="1ea317790d2ca983-9" edge="1">
          <mxGeometry relative="1" as="geometry" />
        </mxCell>
        <mxCell id="1ea317790d2ca983-14" value="has" style="rounded=1;html=1;labelBackgroundColor=default;startArrow=none;startFill=0;startSize=5;endArrow=classicThin;endFill=1;endSize=5;jettySize=auto;orthogonalLoop=1;strokeColor=#788AA3;strokeWidth=5;fontFamily=Helvetica;fontSize=22;align=center;verticalAlign=middle;fontColor=#000000;edgeStyle=none;flowAnimation=0;enumerate=0;sketchStyle=comic;backgroundOutline=0;snapToPoint=0;orthogonal=0;disableMultiStroke=0;fontStyle=1" parent="HvbxIJ13E0RLusFpOhaC-3" source="1ea317790d2ca983-3" target="1ea317790d2ca983-1" edge="1">
          <mxGeometry relative="1" as="geometry" />
        </mxCell>
        <mxCell id="1ea317790d2ca983-16" value="has" style="edgeStyle=none;rounded=1;html=1;labelBackgroundColor=default;startArrow=none;startFill=0;startSize=5;endArrow=classicThin;endFill=1;endSize=5;jettySize=auto;orthogonalLoop=1;strokeColor=#788AA3;strokeWidth=5;fontFamily=Helvetica;fontSize=22;flowAnimation=0;enumerate=0;sketchStyle=comic;backgroundOutline=0;snapToPoint=0;orthogonal=0;disableMultiStroke=0;fontColor=#000000;fontStyle=1" parent="HvbxIJ13E0RLusFpOhaC-3" source="1ea317790d2ca983-4" target="1ea317790d2ca983-5" edge="1">
          <mxGeometry relative="1" as="geometry" />
        </mxCell>
        <mxCell id="1ea317790d2ca983-24" value="has" style="edgeStyle=none;rounded=1;html=1;labelBackgroundColor=default;startArrow=none;startFill=0;startSize=5;endArrow=classicThin;endFill=1;endSize=5;jettySize=auto;orthogonalLoop=1;strokeColor=#788AA3;strokeWidth=5;fontFamily=Helvetica;fontSize=22;flowAnimation=0;enumerate=0;sketchStyle=comic;backgroundOutline=0;snapToPoint=0;orthogonal=0;disableMultiStroke=0;fontColor=#000000;fontStyle=1" parent="HvbxIJ13E0RLusFpOhaC-3" source="1ea317790d2ca983-8" target="1ea317790d2ca983-7" edge="1">
          <mxGeometry relative="1" as="geometry" />
        </mxCell>
        <mxCell id="1ea317790d2ca983-20" value="has multiple" style="edgeStyle=none;rounded=1;html=1;labelBackgroundColor=default;startArrow=none;startFill=0;startSize=5;endArrow=classicThin;endFill=1;endSize=5;jettySize=auto;orthogonalLoop=1;strokeColor=#788AA3;strokeWidth=5;fontFamily=Helvetica;fontSize=22;flowAnimation=0;enumerate=0;sketchStyle=comic;backgroundOutline=0;snapToPoint=0;orthogonal=0;disableMultiStroke=0;fontColor=#000000;fontStyle=1" parent="HvbxIJ13E0RLusFpOhaC-3" source="1ea317790d2ca983-10" target="1ea317790d2ca983-11" edge="1">
          <mxGeometry relative="1" as="geometry" />
        </mxCell>
        <mxCell id="mt-MSzTP2T6WztOtASTQ-3" value="has" style="rounded=1;html=1;labelBackgroundColor=default;startArrow=none;startFill=0;startSize=5;endArrow=classicThin;endFill=1;endSize=5;jettySize=auto;orthogonalLoop=1;strokeColor=#788AA3;strokeWidth=5;fontFamily=Helvetica;fontSize=22;exitX=1;exitY=0.5;exitDx=0;exitDy=0;entryX=1;entryY=0.5;entryDx=0;entryDy=0;flowAnimation=0;enumerate=0;sketchStyle=comic;backgroundOutline=0;snapToPoint=0;orthogonal=0;disableMultiStroke=0;fontColor=#000000;fontStyle=1" parent="HvbxIJ13E0RLusFpOhaC-3" source="1ea317790d2ca983-2" edge="1">
          <mxGeometry relative="1" as="geometry">
            <mxPoint x="864.1304347826089" y="216.7578947368421" as="sourcePoint" />
            <mxPoint x="1002.3913043478263" y="216.7578947368421" as="targetPoint" />
          </mxGeometry>
        </mxCell>
        <mxCell id="mt-MSzTP2T6WztOtASTQ-6" value="has" style="edgeStyle=none;rounded=1;html=1;labelBackgroundColor=default;startArrow=none;startFill=0;startSize=5;endArrow=classicThin;endFill=1;endSize=5;jettySize=auto;orthogonalLoop=1;strokeColor=#788AA3;strokeWidth=5;fontFamily=Helvetica;fontSize=22;entryX=0.973;entryY=0.72;entryDx=0;entryDy=0;entryPerimeter=0;flowAnimation=0;enumerate=0;sketchStyle=comic;backgroundOutline=0;snapToPoint=0;orthogonal=0;disableMultiStroke=0;fontColor=#000000;fontStyle=1" parent="HvbxIJ13E0RLusFpOhaC-3" source="1ea317790d2ca983-4" target="mt-MSzTP2T6WztOtASTQ-4" edge="1">
          <mxGeometry relative="1" as="geometry">
            <mxPoint x="626.4945652173914" y="229.26315789473682" as="sourcePoint" />
            <mxPoint x="738.8315217391305" y="229.26315789473682" as="targetPoint" />
          </mxGeometry>
        </mxCell>
        <mxCell id="mt-MSzTP2T6WztOtASTQ-7" value="has multiple" style="edgeStyle=none;rounded=1;html=1;labelBackgroundColor=default;startArrow=none;startFill=0;startSize=5;endArrow=classicThin;endFill=1;endSize=5;jettySize=auto;orthogonalLoop=1;strokeColor=#788AA3;strokeWidth=5;fontFamily=Helvetica;fontSize=22;exitX=0.5;exitY=1;exitDx=0;exitDy=0;entryX=0.5;entryY=0;entryDx=0;entryDy=0;flowAnimation=0;enumerate=0;sketchStyle=comic;align=center;verticalAlign=middle;fontColor=#000000;backgroundOutline=0;snapToPoint=0;orthogonal=0;disableMultiStroke=0;fontStyle=1" parent="HvbxIJ13E0RLusFpOhaC-3" source="1ea317790d2ca983-3" target="1ea317790d2ca983-10" edge="1">
          <mxGeometry relative="1" as="geometry">
            <mxPoint x="805.3695652173914" y="466.8631578947368" as="sourcePoint" />
            <mxPoint x="807.0978260869566" y="536.3368421052631" as="targetPoint" />
          </mxGeometry>
        </mxCell>
        <mxCell id="-69OxPuNq_jgh57A_tOw-3" value="has multiple" style="edgeStyle=none;rounded=1;html=1;labelBackgroundColor=default;startArrow=none;startFill=0;startSize=5;endArrow=classicThin;endFill=1;endSize=5;jettySize=auto;orthogonalLoop=1;strokeColor=#788AA3;strokeWidth=5;fontFamily=Helvetica;fontSize=22;exitX=0.5;exitY=1;exitDx=0;exitDy=0;flowAnimation=0;enumerate=0;sketchStyle=comic;backgroundOutline=0;snapToPoint=0;orthogonal=0;disableMultiStroke=0;fontColor=#000000;fontStyle=1" parent="HvbxIJ13E0RLusFpOhaC-3" source="1ea317790d2ca983-11" target="-69OxPuNq_jgh57A_tOw-1" edge="1">
          <mxGeometry relative="1" as="geometry">
            <mxPoint x="732.7826086956522" y="790.6105263157893" as="sourcePoint" />
            <mxPoint x="784.6304347826087" y="876.757894736842" as="targetPoint" />
          </mxGeometry>
        </mxCell>
        <mxCell id="-69OxPuNq_jgh57A_tOw-4" value="has" style="edgeStyle=none;rounded=1;html=1;labelBackgroundColor=default;startArrow=none;startFill=0;startSize=5;endArrow=classicThin;endFill=1;endSize=5;jettySize=auto;orthogonalLoop=1;strokeColor=#788AA3;strokeWidth=5;fontFamily=Helvetica;fontSize=22;exitX=0;exitY=0.5;exitDx=0;exitDy=0;entryX=1;entryY=0.5;entryDx=0;entryDy=0;flowAnimation=0;enumerate=0;sketchStyle=comic;backgroundOutline=0;snapToPoint=0;orthogonal=0;disableMultiStroke=0;fontColor=#000000;fontStyle=1" parent="HvbxIJ13E0RLusFpOhaC-3" source="-69OxPuNq_jgh57A_tOw-1" target="-69OxPuNq_jgh57A_tOw-2" edge="1">
          <mxGeometry relative="1" as="geometry">
            <mxPoint x="959.1847826086957" y="910.1052631578947" as="sourcePoint" />
            <mxPoint x="1071.521739130435" y="910.1052631578947" as="targetPoint" />
          </mxGeometry>
        </mxCell>
        <mxCell id="-69OxPuNq_jgh57A_tOw-5" value="may have" style="edgeStyle=none;rounded=1;html=1;labelBackgroundColor=default;startArrow=none;startFill=0;startSize=5;endArrow=classicThin;endFill=1;endSize=5;jettySize=auto;orthogonalLoop=1;strokeColor=#788AA3;strokeWidth=5;fontFamily=Helvetica;fontSize=22;exitX=1;exitY=0.5;exitDx=0;exitDy=0;entryX=0;entryY=0.5;entryDx=0;entryDy=0;flowAnimation=0;enumerate=0;sketchStyle=comic;backgroundOutline=0;snapToPoint=0;orthogonal=0;disableMultiStroke=0;fontColor=#000000;fontStyle=1" parent="HvbxIJ13E0RLusFpOhaC-3" source="-69OxPuNq_jgh57A_tOw-1" target="1ea317790d2ca983-8" edge="1">
          <mxGeometry relative="1" as="geometry">
            <mxPoint x="610.0760869565219" y="954.5684210526315" as="sourcePoint" />
            <mxPoint x="440.7065217391305" y="954.5684210526315" as="targetPoint" />
          </mxGeometry>
        </mxCell>
        <mxCell id="-69OxPuNq_jgh57A_tOw-10" value="has" style="edgeStyle=none;rounded=1;html=1;labelBackgroundColor=default;startArrow=none;startFill=0;startSize=5;endArrow=classicThin;endFill=1;endSize=5;jettySize=auto;orthogonalLoop=1;strokeColor=#788AA3;strokeWidth=5;fontFamily=Helvetica;fontSize=22;exitX=1;exitY=0.5;exitDx=0;exitDy=0;entryX=0;entryY=0.5;entryDx=0;entryDy=0;flowAnimation=0;enumerate=0;sketchStyle=comic;backgroundOutline=0;snapToPoint=0;orthogonal=0;disableMultiStroke=0;fontColor=#000000;fontStyle=1" parent="HvbxIJ13E0RLusFpOhaC-3" source="-69OxPuNq_jgh57A_tOw-7" target="-69OxPuNq_jgh57A_tOw-8" edge="1">
          <mxGeometry relative="1" as="geometry">
            <mxPoint x="898.6956521739132" y="1006.6736842105263" as="sourcePoint" />
            <mxPoint x="985.1086956521742" y="1007.3684210526314" as="targetPoint" />
          </mxGeometry>
        </mxCell>
        <mxCell id="-69OxPuNq_jgh57A_tOw-11" value="may have" style="edgeStyle=none;rounded=1;html=1;labelBackgroundColor=default;startArrow=none;startFill=0;startSize=5;endArrow=classicThin;endFill=1;endSize=5;jettySize=auto;orthogonalLoop=1;strokeColor=#788AA3;strokeWidth=5;fontFamily=Helvetica;fontSize=22;exitX=1;exitY=0.5;exitDx=0;exitDy=0;entryX=0;entryY=0.5;entryDx=0;entryDy=0;flowAnimation=0;enumerate=0;sketchStyle=comic;backgroundOutline=0;snapToPoint=0;orthogonal=0;disableMultiStroke=0;fontColor=#000000;fontStyle=1" parent="HvbxIJ13E0RLusFpOhaC-3" source="-69OxPuNq_jgh57A_tOw-8" target="-69OxPuNq_jgh57A_tOw-9" edge="1">
          <mxGeometry relative="1" as="geometry">
            <mxPoint x="1132.0108695652175" y="1006.6736842105263" as="sourcePoint" />
            <mxPoint x="1247.804347826087" y="1006.6736842105263" as="targetPoint" />
          </mxGeometry>
        </mxCell>
        <mxCell id="-69OxPuNq_jgh57A_tOw-12" value="has" style="edgeStyle=none;rounded=1;html=1;labelBackgroundColor=default;startArrow=none;startFill=0;startSize=5;endArrow=classicThin;endFill=1;endSize=5;jettySize=auto;orthogonalLoop=1;strokeColor=#788AA3;strokeWidth=5;fontFamily=Helvetica;fontSize=22;exitX=0.5;exitY=1;exitDx=0;exitDy=0;entryX=0.5;entryY=0;entryDx=0;entryDy=0;flowAnimation=0;enumerate=0;sketchStyle=comic;backgroundOutline=0;snapToPoint=0;orthogonal=0;disableMultiStroke=0;fontColor=#000000;fontStyle=1" parent="HvbxIJ13E0RLusFpOhaC-3" source="-69OxPuNq_jgh57A_tOw-1" target="-69OxPuNq_jgh57A_tOw-7" edge="1">
          <mxGeometry relative="1" as="geometry">
            <mxPoint x="803.6413043478263" y="937.8947368421051" as="sourcePoint" />
            <mxPoint x="803.6413043478263" y="1021.2631578947368" as="targetPoint" />
          </mxGeometry>
        </mxCell>
        <mxCell id="-69OxPuNq_jgh57A_tOw-13" value="has" style="edgeStyle=none;rounded=1;html=1;labelBackgroundColor=default;startArrow=none;startFill=0;startSize=5;endArrow=classicThin;endFill=1;endSize=5;jettySize=auto;orthogonalLoop=1;strokeColor=#788AA3;strokeWidth=5;fontFamily=Helvetica;fontSize=22;exitX=0.5;exitY=1;exitDx=0;exitDy=0;entryX=0.98;entryY=0.14;entryDx=0;entryDy=0;entryPerimeter=0;flowAnimation=0;enumerate=0;sketchStyle=comic;backgroundOutline=0;snapToPoint=0;orthogonal=0;disableMultiStroke=0;fontColor=#000000;fontStyle=1" parent="HvbxIJ13E0RLusFpOhaC-3" source="1ea317790d2ca983-8" target="-69OxPuNq_jgh57A_tOw-7" edge="1">
          <mxGeometry relative="1" as="geometry">
            <mxPoint x="915.9782608695652" y="972.6315789473683" as="sourcePoint" />
            <mxPoint x="1135.4673913043478" y="972.6315789473683" as="targetPoint" />
          </mxGeometry>
        </mxCell>
        <mxCell id="-69OxPuNq_jgh57A_tOw-14" value="has" style="edgeStyle=none;rounded=1;html=1;labelBackgroundColor=default;startArrow=none;startFill=0;startSize=5;endArrow=classicThin;endFill=1;endSize=5;jettySize=auto;orthogonalLoop=1;strokeColor=#788AA3;strokeWidth=5;fontFamily=Helvetica;fontSize=22;exitX=0;exitY=0.5;exitDx=0;exitDy=0;entryX=1;entryY=0.5;entryDx=0;entryDy=0;flowAnimation=0;enumerate=0;sketchStyle=comic;backgroundOutline=0;snapToPoint=0;orthogonal=0;disableMultiStroke=0;fontColor=#000000;fontStyle=1" parent="HvbxIJ13E0RLusFpOhaC-3" source="1ea317790d2ca983-2" target="1ea317790d2ca983-4" edge="1">
          <mxGeometry relative="1" as="geometry">
            <mxPoint x="782.9021739130436" y="214.6736842105263" as="sourcePoint" />
            <mxPoint x="604.8913043478261" y="214.6736842105263" as="targetPoint" />
          </mxGeometry>
        </mxCell>
        <mxCell id="-69OxPuNq_jgh57A_tOw-32" value="may have" style="edgeStyle=none;rounded=1;html=1;labelBackgroundColor=default;startArrow=none;startFill=0;startSize=5;endArrow=classicThin;endFill=1;endSize=5;jettySize=auto;orthogonalLoop=1;strokeColor=#788AA3;strokeWidth=5;fontFamily=Helvetica;fontSize=22;exitX=0.973;exitY=0.74;exitDx=0;exitDy=0;entryX=0;entryY=0.5;entryDx=0;entryDy=0;exitPerimeter=0;flowAnimation=0;enumerate=0;sketchStyle=comic;backgroundOutline=0;snapToPoint=0;orthogonal=0;disableMultiStroke=0;fontColor=#000000;fontStyle=1" parent="HvbxIJ13E0RLusFpOhaC-3" source="-69OxPuNq_jgh57A_tOw-8" target="-69OxPuNq_jgh57A_tOw-24" edge="1">
          <mxGeometry relative="1" as="geometry">
            <mxPoint x="1270.271739130435" y="1067.1157894736841" as="sourcePoint" />
            <mxPoint x="1474.2065217391305" y="997.6421052631578" as="targetPoint" />
          </mxGeometry>
        </mxCell>
        <mxCell id="-69OxPuNq_jgh57A_tOw-34" value="may have" style="edgeStyle=none;rounded=1;html=1;labelBackgroundColor=default;startArrow=none;startFill=0;startSize=5;endArrow=classicThin;endFill=1;endSize=5;jettySize=auto;orthogonalLoop=1;strokeColor=#788AA3;strokeWidth=5;fontFamily=Helvetica;fontSize=22;exitX=0.233;exitY=1;exitDx=0;exitDy=0;entryX=0.63;entryY=0.014;entryDx=0;entryDy=0;exitPerimeter=0;entryPerimeter=0;flowAnimation=0;enumerate=0;sketchStyle=comic;backgroundOutline=0;snapToPoint=0;orthogonal=0;disableMultiStroke=0;fontColor=#000000;fontStyle=1" parent="HvbxIJ13E0RLusFpOhaC-3" source="-69OxPuNq_jgh57A_tOw-1" target="-69OxPuNq_jgh57A_tOw-33" edge="1">
          <mxGeometry relative="1" as="geometry">
            <mxPoint x="1270.271739130435" y="1067.1157894736841" as="sourcePoint" />
            <mxPoint x="1474.2065217391305" y="997.6421052631578" as="targetPoint" />
          </mxGeometry>
        </mxCell>
      </root>
    </mxGraphModel>
  </diagram>
</mxfile>
